HIERARCHY
ROOT Hips
{
	OFFSET 0.000000 95.729000 0.000000
	CHANNELS 6 Xposition Yposition Zposition Yrotation Xrotation Zrotation
	JOINT RightUpLeg
	{
		OFFSET -9.625000 -1.639000 0.000000
		CHANNELS 3 Yrotation Xrotation Zrotation
		JOINT RightLeg
		{
			OFFSET 0.000000 -41.481000 0.000000
			CHANNELS 3 Yrotation Xrotation Zrotation
			JOINT RightFoot
			{
				OFFSET 0.000000 -43.120000 0.000000
				CHANNELS 3 Yrotation Xrotation Zrotation
				End Site
				{
					OFFSET 0.000000 -7.850000 17.850000
				}
			}
		}
	}
	JOINT LeftUpLeg
	{
		OFFSET 9.625000 -1.639000 0.000000
		CHANNELS 3 Yrotation Xrotation Zrotation
		JOINT LeftLeg
		{
			OFFSET 0.000000 -43.120000 0.000000
			CHANNELS 3 Yrotation Xrotation Zrotation
			JOINT LeftFoot
			{
				OFFSET 0.000000 -43.120000 0.000000
				CHANNELS 3 Yrotation Xrotation Zrotation
				End Site
				{
					OFFSET 0.000000 -7.850000 17.850000
				}
			}
		}
	}
	JOINT Spine
	{
		OFFSET 0.000000 16.395000 0.000000
		CHANNELS 3 Yrotation Xrotation Zrotation
		JOINT Spine1
		{
			OFFSET 0.000000 10.023000 0.000000
			CHANNELS 3 Yrotation Xrotation Zrotation
			JOINT Spine2
			{
				OFFSET 0.000000 10.437000 0.000000
				CHANNELS 3 Yrotation Xrotation Zrotation
				JOINT Spine3
				{
					OFFSET 0.000000 10.023000 0.000000
					CHANNELS 3 Yrotation Xrotation Zrotation
					JOINT Neck
					{
						OFFSET 0.000000 10.713000 0.000000
						CHANNELS 3 Yrotation Xrotation Zrotation
						JOINT Head
						{
							OFFSET 0.000000 9.720000 0.000000
							CHANNELS 3 Yrotation Xrotation Zrotation
							End Site
							{
								OFFSET 0.000000 16.450000 0.000000
							}
						}
					}
					JOINT RightShoulder
					{
						OFFSET -3.275000 7.142000 0.000000
						CHANNELS 3 Yrotation Xrotation Zrotation
						JOINT RightArm
						{
							OFFSET -13.100000 0.000000 0.000000
							CHANNELS 3 Yrotation Xrotation Zrotation
							JOINT RightForeArm
							{
								OFFSET -27.250000 0.000000 0.000000
								CHANNELS 3 Yrotation Xrotation Zrotation
								JOINT RightHand
								{
									OFFSET -26.750000 0.000000 0.000000
									CHANNELS 3 Yrotation Xrotation Zrotation
									End Site
									{
										OFFSET -3.479000 0.532000 0.778000
									}
								}
							}
						}
					}
					JOINT LeftShoulder
					{
						OFFSET 3.275000 7.142000 0.000000
						CHANNELS 3 Yrotation Xrotation Zrotation
						JOINT LeftArm
						{
							OFFSET 13.100000 0.000000 0.000000
							CHANNELS 3 Yrotation Xrotation Zrotation
							JOINT LeftForeArm
							{
								OFFSET 27.250000 0.000000 0.000000
								CHANNELS 3 Yrotation Xrotation Zrotation
								JOINT LeftHand
								{
									OFFSET 26.750000 0.000000 0.000000
									CHANNELS 3 Yrotation Xrotation Zrotation
									End Site
									{
										OFFSET 3.479000 0.532000 0.778000
									}
								}
							}
						}
					}
				}
			}
		}
	}
}
MOTION
Frames: 18
Frame Time: 0.010000
12.21 93.87 4.52 -146.67 3.19 0.48 8.14 -15.0 -4.69 -0.0 29.82 -0.0 -9.03 -16.6 5.66 14.63 -22.02 3.98 0.0 33.6 0.0 5.3 -8.0 -0.14 0.96 -2.91 -1.54 0.25 -0.73 -0.38 0.42 -1.21 -0.64 0.57 0.64 0.28 0.58 0.64 0.28 11.64 10.91 6.2 23.76 -7.07 -8.06 49.93 -58.51 5.58 79.26 22.09 0.98 -28.66 21.2 -2.51 2.73 -0.38 -7.63 -27.71 5.38 -70.7 -5.07 -2.15 -1.12 -9.02 31.97 7.71
12.27 93.63 4.62 -147.03 3.68 0.57 8.51 -16.26 -4.94 0.0 31.12 0.0 -8.96 -17.09 5.82 14.85 -22.97 3.77 0.0 34.54 -0.0 5.49 -8.41 -0.24 0.86 -2.69 -1.38 0.22 -0.67 -0.34 0.37 -1.12 -0.57 0.59 0.61 0.26 0.6 0.61 0.26 11.89 10.44 5.74 23.44 -7.03 -8.34 48.37 -58.87 6.64 77.64 22.43 0.23 -27.48 20.74 -2.99 2.37 -0.2 -7.98 -27.88 5.24 -70.34 -5.6 -2.24 -1.04 -8.9 31.99 7.81
12.27 93.18 4.7 -147.48 4.39 0.71 8.95 -18.14 -5.38 -0.0 33.34 -0.0 -8.91 -18.12 6.47 13.94 -25.8 3.88 0.0 38.32 0.0 4.72 -7.05 -0.31 0.7 -2.42 -1.19 0.18 -0.61 -0.29 0.31 -1.01 -0.49 0.61 0.59 0.24 0.62 0.59 0.24 12.19 10.09 5.39 22.62 -6.66 -8.28 46.35 -59.43 8.31 79.19 22.33 0.38 -29.27 20.7 -3.73 1.97 -0.1 -8.55 -28.27 5.1 -69.81 -5.94 -2.12 -0.85 -8.58 32.03 7.81
12.19 92.66 4.75 -147.83 5.05 1.1 8.71 -20.11 -6.05 -0.0 35.89 -0.0 -8.07 -19.39 6.67 13.8 -27.9 3.52 -0.0 41.16 -0.0 4.25 -6.64 -0.34 0.5 -2.07 -1.12 0.13 -0.52 -0.28 0.22 -0.86 -0.47 0.62 0.57 0.23 0.62 0.57 0.23 12.21 9.88 5.19 21.39 -6.2 -7.91 44.08 -60.0 10.63 76.88 22.37 -0.46 -25.67 20.25 -4.61 1.49 -0.11 -9.09 -28.61 4.82 -69.3 -5.9 -2.08 -0.6 -8.41 32.08 7.63
12.2 92.08 4.72 -148.11 5.66 1.25 8.69 -22.04 -6.44 0.0 38.45 0.0 -7.72 -20.65 7.19 12.92 -30.1 3.66 0.0 44.14 0.0 3.9 -6.22 -0.65 0.32 -1.67 -0.86 0.08 -0.42 -0.21 0.14 -0.7 -0.36 0.61 0.56 0.21 0.61 0.56 0.21 11.93 9.69 4.75 20.41 -5.78 -7.47 44.89 -60.29 10.19 74.18 22.18 -1.15 -27.86 19.71 -5.97 0.77 -0.06 -9.77 -28.71 4.36 -68.63 -5.65 -2.16 -0.47 -8.42 31.97 7.44
12.18 91.38 4.64 -148.52 6.41 1.24 8.64 -24.21 -6.72 0.0 41.23 0.0 -7.24 -22.05 7.84 12.47 -32.68 3.83 -0.0 47.57 -0.0 3.87 -5.85 -0.71 0.21 -1.31 -0.46 0.05 -0.33 -0.11 0.09 -0.54 -0.19 0.59 0.55 0.18 0.6 0.55 0.18 11.58 9.58 4.17 19.98 -5.77 -7.37 34.36 -60.35 19.94 77.34 22.5 -0.35 -29.22 18.98 -7.14 0.03 -0.2 -10.22 -28.78 3.83 -68.22 -5.33 -2.17 -0.35 -8.58 31.88 7.15
12.14 90.54 4.49 -149.0 7.38 1.32 8.81 -26.73 -7.12 -0.0 44.33 -0.0 -6.72 -23.59 8.14 12.26 -35.54 3.81 -0.0 51.19 -0.0 3.99 -5.41 -0.6 0.06 -1.02 -0.04 0.01 -0.25 -0.01 0.02 -0.42 -0.02 0.59 0.54 0.14 0.59 0.54 0.14 11.4 9.54 3.45 18.77 -5.52 -6.18 31.6 -59.56 23.35 74.42 22.6 -0.9 -27.91 18.14 -9.07 -0.59 -0.37 -10.55 -28.33 2.8 -67.96 -5.13 -1.34 -0.16 -8.74 31.86 6.76
12.16 89.48 4.31 -149.49 8.49 1.11 7.9 -29.85 -7.21 -0.0 48.0 0.0 -5.2 -25.0 8.97 11.06 -38.89 4.49 0.0 55.33 -0.0 4.14 -4.97 -0.77 -0.11 -0.73 0.64 -0.03 -0.18 0.16 -0.05 -0.31 0.26 0.6 0.52 0.09 0.6 0.53 0.09 11.33 9.48 2.59 18.05 -5.7 -5.77 27.45 -58.87 28.28 72.66 23.5 -0.84 -28.0 17.19 -10.74 -1.19 -0.42 -11.01 -29.35 3.05 -67.59 -6.12 -2.33 0.19 -8.64 31.88 6.92
12.16 88.25 4.12 -150.04 9.83 0.95 7.51 -33.57 -7.48 -0.0 52.37 -0.0 -3.82 -26.16 9.81 10.6 -42.39 4.85 -0.0 59.43 0.0 4.55 -5.0 -0.74 0.03 -0.99 0.99 0.01 -0.25 0.25 0.01 -0.41 0.41 0.59 0.53 0.07 0.59 0.53 0.08 11.19 9.66 2.27 17.02 -5.0 -4.95 24.05 -58.04 32.53 70.67 24.9 -1.26 -28.02 16.33 -12.27 -2.24 0.5 -11.04 -29.68 2.68 -66.87 -7.35 -2.55 0.43 -8.27 31.83 7.54
12.21 87.28 3.93 -150.49 10.89 0.9 7.69 -36.52 -7.83 -0.0 55.84 -0.0 -2.97 -26.54 10.47 10.66 -44.99 4.99 0.0 62.38 0.0 4.8 -5.09 -0.61 -0.11 -0.22 1.68 -0.03 -0.05 0.42 -0.05 -0.09 0.7 0.62 0.45 0.01 0.62 0.46 0.01 11.43 8.45 1.03 16.85 -5.55 -5.67 21.37 -57.0 35.34 69.85 25.41 -1.93 -27.94 15.72 -13.07 -2.53 -0.25 -11.82 -29.96 2.43 -66.13 -8.51 -2.79 0.64 -7.93 31.81 8.0
12.37 85.69 3.63 -150.99 12.43 0.63 6.08 -40.81 -7.59 -0.0 60.69 -0.0 -0.27 -27.81 9.86 9.12 -49.58 6.15 0.0 67.44 0.0 4.75 -3.2 0.25 -0.06 0.05 2.32 -0.01 0.01 0.58 -0.02 0.02 0.97 0.61 0.47 -0.01 0.61 0.47 -0.01 11.27 8.83 0.66 16.81 -6.45 -6.46 16.27 -54.77 40.3 69.22 25.89 -2.74 -27.83 14.91 -14.16 -2.69 -1.16 -12.44 -30.15 2.21 -65.54 -9.35 -2.96 0.79 -7.73 32.61 8.81
12.99 83.56 3.47 -151.31 13.76 0.46 6.04 -46.46 -8.01 -0.0 67.72 0.0 2.11 -26.72 11.06 6.77 -52.97 7.84 0.0 72.01 0.0 4.13 -3.03 0.28 -0.05 0.47 2.83 -0.01 0.12 0.71 -0.01 0.19 1.18 0.61 0.46 -0.03 0.62 0.46 -0.03 11.31 8.63 0.24 15.23 -5.35 -5.93 15.4 -54.13 41.8 71.04 26.5 -3.41 -29.45 14.58 -14.33 -4.21 0.22 -12.7 -30.0 0.58 -63.58 -11.5 -2.67 0.97 -6.51 31.79 10.72
14.04 81.13 3.7 -151.51 14.96 0.59 6.97 -51.91 -8.81 -0.0 74.27 -0.0 3.55 -26.9 11.32 4.7 -56.25 9.69 0.0 77.01 0.0 3.52 -3.1 0.5 0.02 0.36 2.9 0.01 0.09 0.73 0.01 0.15 1.21 0.61 0.5 -0.03 0.61 0.51 -0.02 11.35 9.48 0.44 14.36 -4.01 -5.77 12.15 -53.12 45.29 68.26 26.86 -4.17 -27.06 13.2 -16.02 -5.59 1.59 -12.94 -30.39 0.81 -61.15 -13.91 -3.9 0.39 -5.98 32.13 13.36
14.97 78.85 3.85 -151.46 16.14 0.23 6.82 -56.44 -8.53 0.0 79.43 0.0 4.42 -27.75 11.3 0.9 -60.3 13.24 0.0 82.46 -0.0 2.76 -3.1 0.73 -0.05 1.41 3.54 -0.01 0.35 0.89 0.0 0.59 1.47 0.63 0.46 -0.06 0.63 0.46 -0.06 11.53 8.74 -0.22 13.81 -4.38 -6.67 9.38 -51.78 48.59 67.52 27.46 -4.84 -26.6 12.33 -16.95 -6.42 0.58 -13.44 -31.26 0.98 -59.19 -15.95 -4.31 0.33 -4.96 31.76 15.13
15.52 76.72 3.6 -151.36 16.87 0.0 6.73 -59.98 -8.35 -0.0 84.26 -0.0 4.78 -28.17 11.6 -3.55 -63.47 17.79 -0.0 87.49 -0.0 1.72 -3.15 0.97 -0.03 1.97 3.85 0.0 0.49 0.96 0.02 0.82 1.6 0.63 0.45 -0.06 0.63 0.46 -0.06 11.59 8.71 -0.22 12.83 -4.02 -6.66 7.84 -49.86 50.95 66.41 28.16 -5.48 -25.91 11.37 -17.96 -6.94 -0.19 -13.41 -31.8 1.65 -58.08 -18.3 -4.4 0.34 -3.83 31.76 17.03
16.25 74.01 3.62 -151.38 17.56 0.13 8.45 -64.6 -9.75 -180.0 89.66 -180.0 5.17 -27.77 12.24 -7.59 -66.32 22.28 -180.0 87.64 -180.0 0.72 -3.14 1.46 0.19 2.47 3.81 0.06 0.62 0.95 0.13 1.03 1.58 0.63 0.47 -0.06 0.63 0.47 -0.06 11.61 9.01 -0.16 12.06 -3.86 -6.66 6.26 -47.78 53.23 65.2 28.2 -5.65 -23.76 10.25 -20.21 -7.76 -0.72 -13.09 -31.63 1.25 -57.25 -20.27 -4.47 0.25 -2.54 31.61 19.17
16.91 71.34 3.31 -151.12 17.88 -0.1 9.04 -68.21 -10.15 180.0 84.24 180.0 5.93 -27.79 12.83 -14.43 -69.06 29.07 -180.0 82.68 -180.0 -0.04 -3.02 1.44 0.45 2.91 4.08 0.13 0.73 1.02 0.25 1.2 1.69 0.63 0.5 -0.08 0.63 0.5 -0.08 11.55 9.66 -0.45 11.58 -3.37 -6.68 5.39 -47.46 53.94 62.34 28.41 -4.65 -24.21 9.43 -20.08 -9.01 1.02 -13.35 -32.29 0.29 -54.26 -22.25 -6.01 -0.01 -1.65 31.45 20.57
17.34 68.58 3.01 -150.55 17.95 -0.28 11.01 -71.27 -11.69 -180.0 78.97 -180.0 6.43 -28.06 13.43 -22.66 -71.31 37.46 180.0 78.11 180.0 -1.33 -2.56 1.56 0.68 3.38 4.36 0.19 0.84 1.09 0.36 1.39 1.81 0.63 0.51 -0.09 0.63 0.52 -0.09 11.54 9.94 -0.7 11.46 -2.58 -6.55 4.23 -47.25 54.43 59.59 28.77 -3.33 -23.37 8.49 -20.84 -9.5 1.05 -13.2 -32.45 -0.45 -53.19 -23.46 -6.55 -0.19 -0.93 31.3 21.73
